<mxfile host="65bd71144e">
    <diagram name="Page-1" id="OGyZDZ-4g5QOT8xqb29B">
        <mxGraphModel dx="1029" dy="765" grid="1" gridSize="10" guides="1" tooltips="1" connect="1" arrows="1" fold="1" page="1" pageScale="1" pageWidth="827" pageHeight="1169" math="0" shadow="0">
            <root>
                <mxCell id="0"/>
                <mxCell id="1" parent="0"/>
                <mxCell id="T4aZAx2TuG9sc1vIVkXI-1" value="" style="rounded=0;whiteSpace=wrap;html=1;" parent="1" vertex="1">
                    <mxGeometry x="490" y="790" width="190" height="210" as="geometry"/>
                </mxCell>
                <mxCell id="2" style="edgeStyle=none;html=1;exitX=1;exitY=0.5;exitDx=0;exitDy=0;exitPerimeter=0;entryX=0;entryY=0.5;entryDx=0;entryDy=0;" edge="1" parent="1" source="gjHeZdjlkoXC6GVvdKDz-1" target="gjHeZdjlkoXC6GVvdKDz-4">
                    <mxGeometry relative="1" as="geometry"/>
                </mxCell>
                <mxCell id="gjHeZdjlkoXC6GVvdKDz-1" value="Server" style="shape=cylinder3;whiteSpace=wrap;html=1;boundedLbl=1;backgroundOutline=1;size=15;" parent="1" vertex="1">
                    <mxGeometry x="112" y="259" width="60" height="70" as="geometry"/>
                </mxCell>
                <mxCell id="gjHeZdjlkoXC6GVvdKDz-2" value="" style="sketch=0;outlineConnect=0;fontColor=#232F3E;gradientColor=none;fillColor=#3F8624;strokeColor=none;dashed=0;verticalLabelPosition=bottom;verticalAlign=top;align=center;html=1;fontSize=12;fontStyle=0;aspect=fixed;pointerEvents=1;shape=mxgraph.aws4.certificate_manager;" parent="1" vertex="1">
                    <mxGeometry x="162" y="304" width="30.26" height="40" as="geometry"/>
                </mxCell>
                <mxCell id="3" style="edgeStyle=none;html=1;exitX=1;exitY=0.5;exitDx=0;exitDy=0;entryX=0;entryY=0.5;entryDx=0;entryDy=0;" edge="1" parent="1" source="gjHeZdjlkoXC6GVvdKDz-4" target="gjHeZdjlkoXC6GVvdKDz-8">
                    <mxGeometry relative="1" as="geometry"/>
                </mxCell>
                <mxCell id="gjHeZdjlkoXC6GVvdKDz-4" value="encrypted data" style="shape=message;html=1;html=1;outlineConnect=0;labelPosition=center;verticalLabelPosition=bottom;align=center;verticalAlign=top;" parent="1" vertex="1">
                    <mxGeometry x="252" y="273.75" width="60" height="40" as="geometry"/>
                </mxCell>
                <mxCell id="gjHeZdjlkoXC6GVvdKDz-5" value="" style="sketch=0;outlineConnect=0;fontColor=#232F3E;gradientColor=none;fillColor=#3F8624;strokeColor=none;dashed=0;verticalLabelPosition=bottom;verticalAlign=top;align=center;html=1;fontSize=12;fontStyle=0;aspect=fixed;pointerEvents=1;shape=mxgraph.aws4.certificate_manager;" parent="1" vertex="1">
                    <mxGeometry x="312" y="274" width="22.7" height="30" as="geometry"/>
                </mxCell>
                <mxCell id="6" style="edgeStyle=elbowEdgeStyle;rounded=0;html=1;exitX=0.5;exitY=0;exitDx=0;exitDy=0;exitPerimeter=0;entryX=0;entryY=0.5;entryDx=0;entryDy=0;" edge="1" parent="1" source="gjHeZdjlkoXC6GVvdKDz-6" target="gjHeZdjlkoXC6GVvdKDz-9">
                    <mxGeometry relative="1" as="geometry">
                        <Array as="points">
                            <mxPoint x="410" y="370"/>
                        </Array>
                    </mxGeometry>
                </mxCell>
                <mxCell id="gjHeZdjlkoXC6GVvdKDz-6" value="Notary" style="shape=cylinder3;whiteSpace=wrap;html=1;boundedLbl=1;backgroundOutline=1;size=15;" parent="1" vertex="1">
                    <mxGeometry x="381" y="390" width="58" height="70" as="geometry"/>
                </mxCell>
                <mxCell id="gjHeZdjlkoXC6GVvdKDz-7" value="" style="sketch=0;outlineConnect=0;fillColor=#FF99FF;strokeColor=#b85450;dashed=0;verticalLabelPosition=bottom;verticalAlign=top;align=center;html=1;fontSize=12;fontStyle=0;aspect=fixed;pointerEvents=1;shape=mxgraph.aws4.certificate_manager;" parent="1" vertex="1">
                    <mxGeometry x="418" y="440" width="30.26" height="40" as="geometry"/>
                </mxCell>
                <mxCell id="5" style="edgeStyle=elbowEdgeStyle;html=1;exitX=0.5;exitY=1;exitDx=0;exitDy=0;rounded=0;entryX=0;entryY=0.5;entryDx=0;entryDy=0;" edge="1" parent="1" source="gjHeZdjlkoXC6GVvdKDz-8" target="gjHeZdjlkoXC6GVvdKDz-9">
                    <mxGeometry relative="1" as="geometry">
                        <mxPoint x="530" y="360" as="targetPoint"/>
                        <Array as="points">
                            <mxPoint x="410" y="350"/>
                        </Array>
                    </mxGeometry>
                </mxCell>
                <mxCell id="gjHeZdjlkoXC6GVvdKDz-8" value="User" style="ellipse;whiteSpace=wrap;html=1;aspect=fixed;" parent="1" vertex="1">
                    <mxGeometry x="372" y="255" width="75.5" height="77.5" as="geometry"/>
                </mxCell>
                <mxCell id="7" style="edgeStyle=none;rounded=0;html=1;exitX=1;exitY=0.5;exitDx=0;exitDy=0;entryX=0;entryY=0.5;entryDx=0;entryDy=0;" edge="1" parent="1" source="gjHeZdjlkoXC6GVvdKDz-9" target="gjHeZdjlkoXC6GVvdKDz-10">
                    <mxGeometry relative="1" as="geometry"/>
                </mxCell>
                <mxCell id="gjHeZdjlkoXC6GVvdKDz-9" value="signed data" style="shape=message;html=1;html=1;outlineConnect=0;labelPosition=center;verticalLabelPosition=bottom;align=center;verticalAlign=top;" parent="1" vertex="1">
                    <mxGeometry x="530" y="338.75" width="60" height="40" as="geometry"/>
                </mxCell>
                <mxCell id="gjHeZdjlkoXC6GVvdKDz-10" value="Verifier" style="ellipse;whiteSpace=wrap;html=1;aspect=fixed;" parent="1" vertex="1">
                    <mxGeometry x="660" y="320" width="77.5" height="77.5" as="geometry"/>
                </mxCell>
                <mxCell id="gjHeZdjlkoXC6GVvdKDz-11" value="" style="rounded=0;whiteSpace=wrap;html=1;fillColor=#030303;" parent="1" vertex="1">
                    <mxGeometry x="548" y="341" width="24" height="6.25" as="geometry"/>
                </mxCell>
                <mxCell id="gjHeZdjlkoXC6GVvdKDz-12" value="" style="rounded=0;whiteSpace=wrap;html=1;fillColor=#030303;" parent="1" vertex="1">
                    <mxGeometry x="565" y="362" width="20" height="6.25" as="geometry"/>
                </mxCell>
                <mxCell id="gjHeZdjlkoXC6GVvdKDz-13" value="" style="rounded=0;whiteSpace=wrap;html=1;fillColor=#030303;" parent="1" vertex="1">
                    <mxGeometry x="536" y="369.25" width="20" height="6.25" as="geometry"/>
                </mxCell>
                <mxCell id="gjHeZdjlkoXC6GVvdKDz-14" value="" style="sketch=0;outlineConnect=0;fontColor=#232F3E;gradientColor=none;fillColor=#3F8624;strokeColor=none;dashed=0;verticalLabelPosition=bottom;verticalAlign=top;align=center;html=1;fontSize=12;fontStyle=0;aspect=fixed;pointerEvents=1;shape=mxgraph.aws4.certificate_manager;" parent="1" vertex="1">
                    <mxGeometry x="590" y="338.25" width="22.7" height="30" as="geometry"/>
                </mxCell>
                <mxCell id="gjHeZdjlkoXC6GVvdKDz-15" value="" style="sketch=0;outlineConnect=0;fillColor=#FF99FF;strokeColor=#b85450;dashed=0;verticalLabelPosition=bottom;verticalAlign=top;align=center;html=1;fontSize=12;fontStyle=0;aspect=fixed;pointerEvents=1;shape=mxgraph.aws4.certificate_manager;" parent="1" vertex="1">
                    <mxGeometry x="612.7" y="338.25" width="24.02" height="31.75" as="geometry"/>
                </mxCell>
            </root>
        </mxGraphModel>
    </diagram>
</mxfile>